<svg id="svg7" width="240" height="80" version="1.1" viewBox="0 0 240 80" xmlns="http://www.w3.org/2000/svg"><defs id="defs1"><style id="style1">.cls-1{fill:#d50c2d;}</style></defs><title id="title1">Element 1</title><rect id="rect7" width="240" height="80" rx="7.4104" style="fill:#d50c2e;paint-order:markers fill stroke"/><g id="Ebene_2" transform="translate(29.275 28.875)" style="fill:#ffffff" data-name="Ebene 2"><g id="Logo_Pur" style="fill:#ffffff" data-name="Logo Pur"><g id="Logo" style="fill:#ffffff"><g id="HETZNER" style="fill:#ffffff"><path id="path1" class="cls-1" d="m174.05 14.12a10.22 10.22 0 0 0 4.53-2 6.15 6.15 0 0 0 1.68-4.78 7.71 7.71 0 0 0-1.14-4.06 6.47 6.47 0 0 0-5.28-3.19h-1.09l-2.55-0.09h-11.54c-0.7 0-1 0.29-1 1v20.22c0 0.7 0.29 1 1 1h3c0.7 0 1-0.29 1-1v-6.7h3.67a3.48 3.48 0 0 1 2.17 0.91l5.82 5.85a3.08 3.08 0 0 0 2 0.92h4.47c0.7 0 0.87-0.41 0.38-0.91zm-0.76-4.3h-10.65v-5.1h10.65a2.13 2.13 0 0 1 1.87 2.15v0.79a2.14 2.14 0 0 1-1.87 2.16z" style="fill:#ffffff"/><path id="path2" class="cls-1" d="m153 17.52h-16.53v-4.17h13.19c0.7 0 1-0.29 1-1v-2.43c0-0.7-0.29-1-1-1h-13.2v-4.16h16.54c0.7 0 1-0.29 1-1v-2.76c0-0.7-0.29-1-1-1h-20.62c-0.7 0-1 0.29-1 1v20.24c0 0.7 0.29 1 1 1h20.62c0.7 0 1-0.29 1-1v-2.73c0-0.7-0.33-0.99-1-0.99z" style="fill:#ffffff"/><path id="path3" class="cls-1" d="m127.73 7.3a7.25 7.25 0 0 0-1.13-4 6.61 6.61 0 0 0-5.36-3.3h-15.16c-0.71 0-1 0.29-1 1v20.22c0 0.7 0.29 1 1 1h3.26c0.7 0 1-0.28 1-1v-16.49h8.78c1.87 0 3.69 1.24 3.69 3.11v13.4c0 0.7 0.29 1 1 1h2.95c0.71 0 1-0.29 1-1z" style="fill:#ffffff"/><path id="path4" class="cls-1" d="m100.47 17.39h-14.25l14.28-12.55a2.57 2.57 0 0 0 1-1.84v-2c0-0.7-0.3-1-1-1h-20.67c-0.7 0-1 0.29-1 1v2.77c0 0.7 0.29 1 1 1h13.25l-13.29 12.47a2.62 2.62 0 0 0-1 1.84v2.17c0 0.7 0.29 1 1 1h20.65c0.7 0 1-0.29 1-1v-2.87c0.02-0.7-0.27-0.99-0.97-0.99z" style="fill:#ffffff"/><path id="path5" class="cls-1" d="m74.19 0h-20.64c-0.71 0-1 0.28-1 1v2.76c0 0.7 0.28 1 1 1h7.78v16.48c0 0.7 0.29 1 1 1h3.3c0.7 0 1-0.29 1-1v-16.49h7.57c0.7 0 1-0.29 1-1v-2.75c-0.02-0.68-0.31-1-1.01-1z" style="fill:#ffffff"/><path id="path6" class="cls-1" d="m47.91 17.52h-16.5v-4.17h13.19c0.7 0 1-0.29 1-1v-2.43c0-0.7-0.28-1-1-1h-13.19v-4.16h16.5c0.7 0 1-0.29 1-1v-2.76c0-0.7-0.29-1-1-1h-20.58c-0.7 0-1 0.29-1 1v20.24c0 0.7 0.29 1 1 1h20.58c0.7 0 1-0.29 1-1v-2.73c-0.01-0.7-0.3-0.99-1-0.99z" style="fill:#ffffff"/><path id="path7" class="cls-1" d="m21.63 0h-3.11c-0.7 0-1 0.29-1 1v7.87h-12.39v-7.87c0-0.7-0.29-1-1-1h-3.13c-0.71 0-1 0.29-1 1v20.25c0 0.71 0.29 1 1 1h3.13c0.7 0 1-0.28 1-1v-8h12.4v8c0 0.7 0.29 1 1 1h3.11c0.7 0 1-0.29 1-1v-20.25c-0.02-0.68-0.31-1-1.01-1z" style="fill:#ffffff"/></g></g></g></g></svg>
