<svg width="740" height="228" version="1.1" xmlns="http://www.w3.org/2000/svg"><path d="M717.137 0H22.858C10.234 0 0 10.234 0 22.858v181.976c0 12.624 10.234 22.858 22.858 22.858h694.279c12.624 0 22.858-10.234 22.858-22.858V22.858C739.995 10.234 729.761 0 717.137 0z" fill="#FF2449"/><path d="m68.069 33.434c-7.9 4.686-23.452 22.556-23.6 27.242v7.76c0 9.834 9.192 18.477 17.537 18.477 10.02 0 18.369-8.307 18.369-18.164 0 9.857 8.065 18.164 18.088 18.164 10.02 0 17.825-8.307 17.825-18.164 0 9.857 8.575 18.164 18.595 18.164h0.181c10.023 0 18.595-8.307 18.595-18.164 0 9.857 7.809 18.164 17.828 18.164 10.023 0 18.085-8.307 18.085-18.164 0 9.857 8.353 18.164 18.372 18.164 8.345 0 17.537-8.643 17.537-18.481v-7.756c-0.147-4.687-15.704-22.556-23.599-27.242-24.54-0.862-41.552-1.013-66.909-1.01-25.352 0-59.924 0.397-66.908 1.01zm48.094 48.846c-0.95801 1.6712-2.1448 3.2003-3.526 4.543-3.9219 3.8442-9.1962 5.9951-14.688 5.99-5.4997 0.0043-10.782-2.1477-14.713-5.994-1.3289-1.3161-2.463-2.8152-3.368-4.452l-3e-3 3e-3c-0.953 1.675-2.283 3.111-3.655 4.456-3.934 3.844-9.2177 5.9933-14.718 5.987-0.67792-0.02323-1.3477-0.1549-1.984-0.39-0.69338 7.4004-1.1157 14.824-1.266 22.255v0.034l-0.045 8.802c0.15 17.601-1.743 57.048 7.759 66.742 14.729 3.432 41.828 4.997 69.014 5.008h7e-3c27.186-0.011 54.289-1.576 69.014-5.008 9.505-9.694 7.608-49.141 7.763-66.746l-0.046-8.798v-0.038c-0.15-7.43-0.572-14.851-1.266-22.25-0.6362 0.23535-1.3061 0.36702-1.984 0.39-5.5005 5e-3 -10.784-2.1458-14.717-5.991-1.372-1.346-2.703-2.778-3.655-4.453h-4e-3c-0.90518 1.6343-2.0389 3.131-3.367 4.445-3.9311 3.8468-9.2139 5.9988-14.714 5.994-5.4914 0.0046-10.765-2.1463-14.687-5.99-1.3812-1.3427-2.568-2.8718-3.526-4.543-0.94762 1.6693-2.1233 3.1983-3.493 4.543-3.932 3.8473-9.2159 5.9994-14.717 5.994-0.19908-0.0013-0.39811-0.0063-0.597-0.015h-8e-3c-0.196 0-0.396 0.015-0.597 0.015-5.5011 0.0054-10.785-2.1467-14.717-5.994-1.3707-1.3435-2.5474-2.8715-3.496-4.54zm-15.114 19.54v0.011h0.011c5.983 0.011 11.301 0 17.888 7.189 5.324-0.55 10.673-0.818 16.025-0.805 5.3521-0.0129 10.701 0.25583 16.025 0.805 6.592-7.189 11.906-7.181 17.893-7.189h0.011v-7e-3c2.827 0 14.135-1e-3 22.019 22.136l8.466 30.368c6.274 22.59-2.01 23.142-12.34 23.165-15.322-0.571-23.803-11.698-23.803-22.825-8.481 1.391-18.376 2.087-28.271 2.087-9.894 0-19.789-0.696-28.27-2.087 0 11.127-8.481 22.254-23.803 22.825-10.33-0.023-18.61-0.575-12.337-23.169l8.466-30.364c7.884-22.137 19.193-22.136 22.02-22.136zm33.924 17.401c-0.015 0.018-16.131 14.815-19.026 20.08l10.553-0.423v9.203c0 0.431 4.233 0.253 8.473 0.056 4.241 0.197 8.478 0.375 8.478-0.056v-9.203l10.552 0.423c-2.899-5.261-19.026-20.077-19.026-20.077z" fill="#fff"/><path d="m286.69 164.74v-73.643h24.846v73.643zm12.574-79.634c-4.192 0-7.436-1.047-9.732-3.141-2.195-2.096-3.292-4.89-3.292-8.383 0-3.293 1.097-6.087 3.292-8.383 2.296-2.292 5.538-3.439 9.729-3.439 4.192 0 7.386 1.147 9.581 3.44 2.295 2.292 3.443 5.087 3.443 8.382 0 3.493-1.147 6.287-3.44 8.383-2.197 2.094-5.39 3.141-9.581 3.141zm49.349 81.131c-7.186 0-12.626-1.896-16.32-5.688-3.59-3.891-5.385-9.279-5.385-16.165v-34.877h-9.88v-18.414h9.88v-17.96h24.846v17.964h16.169v18.406h-16.169v31.286c0 2.296 0.448 3.942 1.345 4.94 0.998 0.9 2.495 1.349 4.491 1.349 2.696 0 5.64-1.198 8.832-3.594l5.688 16.316c-2.892 1.998-6.185 3.595-9.879 4.789-3.692 1.101-8.231 1.652-13.618 1.652zm61.115 0c-11.377 0-20.358-3.243-26.944-9.729-6.486-6.485-9.729-15.915-9.729-28.289 0-8.983 1.846-16.517 5.537-22.602 3.792-6.289 8.534-10.531 14.226-12.725 5.987-2.296 11.526-3.443 16.619-3.443 6.384 0 11.724 1.297 16.017 3.893 4.291 2.494 7.434 5.238 9.43 8.231 2.099 2.994 3.596 5.338 4.49 7.034l-17.212 11.078c-1.592-3.294-3.338-5.889-5.238-7.786-1.895-1.895-4.188-2.842-6.879-2.842-3.794 0-6.788 1.496-8.98 4.49-2.195 2.993-3.292 7.534-3.292 13.621 0 6.586 1.298 11.427 3.893 14.521 2.59 3.094 6.282 4.641 11.074 4.641 3.795 0 6.938-0.699 9.43-2.097 2.595-1.401 5.04-3.198 7.336-5.39l7.937 18.557c-2.396 1.993-5.94 3.99-10.632 5.991-4.689 1.892-10.377 2.838-17.064 2.838zm36.154-1.497v-99.99h24.998v30.387c2.094-1.497 4.639-2.794 7.635-3.893 2.993-1.197 6.585-1.795 10.775-1.795 8.781 0 15.317 2.494 19.608 7.483 4.392 4.994 6.588 12.031 6.588 21.112v46.704h-24.998v-43.714c0-4.188-0.798-7.231-2.392-9.131-1.593-1.993-3.688-2.99-6.286-2.99-2.194 0-4.242 0.5-6.141 1.501-1.893 0.997-3.489 2.047-4.789 3.148v51.193h-24.998zm88.796 1.497c-3.991 0-7.135-1.147-9.43-3.44-2.293-2.295-3.439-5.239-3.439-8.832s1.146-6.587 3.439-8.98c2.295-2.394 5.439-3.591 9.43-3.591 3.792 0 6.836 1.197 9.131 3.591 2.298 2.393 3.447 5.387 3.447 8.98s-1.146 6.536-3.439 8.829c-2.192 2.295-5.236 3.443-9.132 3.443zm18.383-1.497v-73.643h24.847v73.643zm12.567-79.619c-4.19 0-7.433-1.048-9.728-3.144-2.195-2.094-3.292-4.887-3.292-8.38 0-3.293 1.096-6.087 3.288-8.382 2.298-2.296 5.542-3.444 9.732-3.444 4.193 0 7.387 1.147 9.581 3.44 2.293 2.298 3.439 5.093 3.439 8.386 0 3.493-1.146 6.286-3.439 8.38-2.194 2.096-5.388 3.144-9.581 3.144zm56.156 81.116c-5.788 0-10.928-0.948-15.42-2.842-4.49-1.996-8.332-4.691-11.524-8.085-3.092-3.492-5.485-7.583-7.181-12.272-1.6-4.79-2.4-9.98-2.4-15.571 0-8.28 1.796-15.514 5.389-21.702 3.694-6.088 8.285-10.328 13.773-12.722 5.588-2.396 11.376-3.594 17.363-3.594 8.579 0 15.662 1.995 21.248 5.986 5.687 3.992 9.681 8.981 11.981 14.967 2.293 5.99 3.44 11.679 3.44 17.068 0 5.587-0.85 10.776-2.548 15.568-1.595 4.687-3.991 8.777-7.188 12.272-3.095 3.394-6.937 6.09-11.528 8.088-4.49 1.898-9.63 2.846-15.42 2.846zm0-19.162c4.19 0 7.234-1.745 9.131-5.235 1.895-3.593 2.842-8.383 2.842-14.37 0-5.689-0.997-10.229-2.993-13.621-1.993-3.394-4.986-5.091-8.98-5.091-3.893 0-6.836 1.697-8.829 5.091-1.993 3.392-2.99 7.932-2.99 13.621 0 5.987 0.949 10.776 2.846 14.366 2.001 3.495 4.994 5.242 8.98 5.242z" fill="#fff"/></svg>
